<svg xmlns="http://www.w3.org/2000/svg" viewBox="0 0 100 100"><circle cx="50" cy="50" r="45" fill="none" stroke="currentColor" stroke-width="5"/><path d="M50 20 L50 50 L70 50" fill="none" stroke="currentColor" stroke-width="5" stroke-linecap="round"/><path d="M50 5 C70 5 85 20 85 40 C85 60 70 75 50 75 C30 75 15 60 15 40 C15 20 30 5 50 5" fill="currentColor" opacity="0.5"/><g transform="translate(50,40)"><rect x="0" y="0" width="3" height="3" fill="currentColor" transform="translate(15,0)"/><rect x="0" y="0" width="3" height="3" fill="currentColor" transform="translate(20,5)"/><rect x="0" y="0" width="3" height="3" fill="currentColor" transform="translate(25,10)"/><rect x="0" y="0" width="3" height="3" fill="currentColor" transform="translate(30,15)"/></g></svg>